<svg width="151" height="26" viewBox="0 0 151 26" fill="none" xmlns="http://www.w3.org/2000/svg">
  <path
    d="M0.721591 21V3.54545H12.0739V6.19602H3.88352V10.9347H11.4858V13.5852H3.88352V18.3494H12.142V21H0.721591ZM17.4904 21.2642C16.6609 21.2642 15.9137 21.1165 15.2489 20.821C14.5898 20.5199 14.0671 20.0767 13.6807 19.4915C13.3001 18.9062 13.1097 18.1847 13.1097 17.3267C13.1097 16.5881 13.2461 15.9773 13.5188 15.4943C13.7915 15.0114 14.1637 14.625 14.6353 14.3352C15.1069 14.0455 15.6381 13.8267 16.229 13.679C16.8256 13.5256 17.4421 13.4148 18.0785 13.3466C18.8455 13.267 19.4677 13.196 19.9449 13.1335C20.4222 13.0653 20.7688 12.9631 20.9847 12.8267C21.2063 12.6847 21.3171 12.4659 21.3171 12.1705V12.1193C21.3171 11.4773 21.1268 10.9801 20.7461 10.6278C20.3654 10.2756 19.8171 10.0994 19.1012 10.0994C18.3455 10.0994 17.7461 10.2642 17.3029 10.5938C16.8654 10.9233 16.5699 11.3125 16.4165 11.7614L13.5359 11.3523C13.7631 10.5568 14.1381 9.89205 14.6609 9.35795C15.1836 8.81818 15.8228 8.41477 16.5785 8.14773C17.3341 7.875 18.1694 7.73864 19.0841 7.73864C19.7148 7.73864 20.3427 7.8125 20.9677 7.96023C21.5927 8.10795 22.1637 8.35227 22.6807 8.69318C23.1978 9.02841 23.6126 9.4858 23.9251 10.0653C24.2432 10.6449 24.4023 11.3693 24.4023 12.2386V21H21.4364V19.2017H21.3341C21.1466 19.5653 20.8824 19.9062 20.5415 20.2244C20.2063 20.5369 19.783 20.7898 19.2716 20.983C18.766 21.1705 18.1722 21.2642 17.4904 21.2642ZM18.2915 18.9972C18.9109 18.9972 19.4478 18.875 19.9023 18.6307C20.3569 18.3807 20.7063 18.0511 20.9506 17.642C21.2006 17.233 21.3256 16.7869 21.3256 16.304V14.7614C21.229 14.8409 21.0643 14.9148 20.8313 14.983C20.604 15.0511 20.3484 15.1108 20.0643 15.1619C19.7802 15.2131 19.4989 15.2585 19.2205 15.2983C18.9421 15.3381 18.7006 15.3722 18.4961 15.4006C18.0359 15.4631 17.6239 15.5653 17.2603 15.7074C16.8966 15.8494 16.6097 16.0483 16.3995 16.304C16.1893 16.554 16.0841 16.8778 16.0841 17.2756C16.0841 17.8438 16.2915 18.2727 16.7063 18.5625C17.1211 18.8523 17.6495 18.9972 18.2915 18.9972ZM36.4112 11.3693L33.5987 11.6761C33.5191 11.392 33.3799 11.125 33.1811 10.875C32.9879 10.625 32.7265 10.4233 32.397 10.2699C32.0674 10.1165 31.664 10.0398 31.1868 10.0398C30.5447 10.0398 30.0049 10.179 29.5674 10.4574C29.1356 10.7358 28.9226 11.0966 28.9282 11.5398C28.9226 11.9205 29.0618 12.2301 29.3459 12.4688C29.6356 12.7074 30.1129 12.9034 30.7777 13.0568L33.0106 13.5341C34.2493 13.8011 35.1697 14.2244 35.772 14.804C36.3799 15.3835 36.6868 16.142 36.6924 17.0795C36.6868 17.9034 36.4453 18.6307 35.968 19.2614C35.4964 19.8864 34.8402 20.375 33.9993 20.7273C33.1584 21.0795 32.1924 21.2557 31.1015 21.2557C29.4993 21.2557 28.2095 20.9205 27.2322 20.25C26.2549 19.5739 25.6726 18.6335 25.4851 17.429L28.4936 17.1392C28.6299 17.7301 28.9197 18.1761 29.3629 18.4773C29.8061 18.7784 30.3828 18.929 31.093 18.929C31.826 18.929 32.414 18.7784 32.8572 18.4773C33.3061 18.1761 33.5305 17.804 33.5305 17.3608C33.5305 16.9858 33.3856 16.6761 33.0959 16.4318C32.8118 16.1875 32.3686 16 31.7663 15.8693L29.5334 15.4006C28.2777 15.1392 27.3487 14.6989 26.7464 14.0795C26.1441 13.4545 25.8459 12.6648 25.8515 11.7102C25.8459 10.9034 26.0646 10.2045 26.5078 9.61364C26.9566 9.01705 27.5788 8.55682 28.3743 8.23295C29.1754 7.90341 30.0987 7.73864 31.1441 7.73864C32.6782 7.73864 33.8856 8.06534 34.7663 8.71875C35.6527 9.37216 36.201 10.2557 36.4112 11.3693ZM39.7141 25.9091C39.2936 25.9091 38.9044 25.875 38.5465 25.8068C38.1942 25.7443 37.913 25.6705 37.7027 25.5852L38.4186 23.1818C38.8675 23.3125 39.2681 23.375 39.6203 23.3693C39.9726 23.3636 40.2823 23.2528 40.5493 23.0369C40.822 22.8267 41.0522 22.4744 41.2397 21.9801L41.5039 21.2727L36.7567 7.90909H40.0294L43.0465 17.7955H43.1828L46.2084 7.90909H49.4897L44.2482 22.5852C44.0039 23.2784 43.68 23.8722 43.2766 24.3665C42.8732 24.8665 42.3789 25.2472 41.7936 25.5085C41.2141 25.7756 40.5209 25.9091 39.7141 25.9091ZM56.2357 21H50.321V3.54545H56.3551C58.088 3.54545 59.5766 3.89489 60.821 4.59375C62.071 5.28693 63.0312 6.28409 63.7016 7.58523C64.3721 8.88636 64.7073 10.4432 64.7073 12.2557C64.7073 14.0739 64.3693 15.6364 63.6931 16.9432C63.0227 18.25 62.0539 19.2528 60.7869 19.9517C59.5255 20.6506 58.0085 21 56.2357 21ZM53.4829 18.2642H56.0823C57.2982 18.2642 58.3124 18.0426 59.1249 17.5994C59.9374 17.1506 60.5482 16.483 60.9573 15.5966C61.3664 14.7045 61.571 13.5909 61.571 12.2557C61.571 10.9205 61.3664 9.8125 60.9573 8.93182C60.5482 8.04545 59.9431 7.38352 59.142 6.94602C58.3465 6.50284 57.3579 6.28125 56.1761 6.28125H53.4829V18.2642ZM71.8455 21.2557C70.567 21.2557 69.4591 20.9744 68.5216 20.4119C67.5841 19.8494 66.8568 19.0625 66.3398 18.0511C65.8284 17.0398 65.5727 15.858 65.5727 14.5057C65.5727 13.1534 65.8284 11.9687 66.3398 10.9517C66.8568 9.93466 67.5841 9.14489 68.5216 8.58239C69.4591 8.01989 70.567 7.73864 71.8455 7.73864C73.1239 7.73864 74.2318 8.01989 75.1693 8.58239C76.1068 9.14489 76.8313 9.93466 77.3426 10.9517C77.8597 11.9687 78.1182 13.1534 78.1182 14.5057C78.1182 15.858 77.8597 17.0398 77.3426 18.0511C76.8313 19.0625 76.1068 19.8494 75.1693 20.4119C74.2318 20.9744 73.1239 21.2557 71.8455 21.2557ZM71.8625 18.7841C72.5557 18.7841 73.1352 18.5937 73.6011 18.2131C74.067 17.8267 74.4136 17.3097 74.6409 16.6619C74.8739 16.0142 74.9903 15.2926 74.9903 14.4972C74.9903 13.696 74.8739 12.9716 74.6409 12.3239C74.4136 11.6705 74.067 11.1506 73.6011 10.7642C73.1352 10.3778 72.5557 10.1847 71.8625 10.1847C71.1523 10.1847 70.5614 10.3778 70.0898 10.7642C69.6239 11.1506 69.2744 11.6705 69.0415 12.3239C68.8142 12.9716 68.7006 13.696 68.7006 14.4972C68.7006 15.2926 68.8142 16.0142 69.0415 16.6619C69.2744 17.3097 69.6239 17.8267 70.0898 18.2131C70.5614 18.5937 71.1523 18.7841 71.8625 18.7841ZM82.382 13.3295V21H79.2968V7.90909H82.2457V10.1335H82.3991C82.7002 9.40057 83.1803 8.81818 83.8394 8.38636C84.5042 7.95455 85.3252 7.73864 86.3025 7.73864C87.2059 7.73864 87.9928 7.93182 88.6633 8.31818C89.3394 8.70455 89.8621 9.2642 90.2314 9.99716C90.6064 10.7301 90.7911 11.6193 90.7854 12.6648V21H87.7002V13.142C87.7002 12.267 87.4729 11.5824 87.0184 11.0881C86.5695 10.5937 85.9474 10.3466 85.1519 10.3466C84.6121 10.3466 84.132 10.4659 83.7116 10.7045C83.2968 10.9375 82.9701 11.2756 82.7314 11.7188C82.4985 12.1619 82.382 12.6989 82.382 13.3295ZM96.2488 21.2642C95.4193 21.2642 94.6721 21.1165 94.0074 20.821C93.3483 20.5199 92.8255 20.0767 92.4392 19.4915C92.0585 18.9062 91.8682 18.1847 91.8682 17.3267C91.8682 16.5881 92.0045 15.9773 92.2772 15.4943C92.55 15.0114 92.9221 14.625 93.3937 14.3352C93.8653 14.0455 94.3966 13.8267 94.9875 13.679C95.5841 13.5256 96.2005 13.4148 96.8369 13.3466C97.6039 13.267 98.2261 13.196 98.7034 13.1335C99.1807 13.0653 99.5272 12.9631 99.7432 12.8267C99.9647 12.6847 100.076 12.4659 100.076 12.1705V12.1193C100.076 11.4773 99.8852 10.9801 99.5045 10.6278C99.1238 10.2756 98.5755 10.0994 97.8596 10.0994C97.1039 10.0994 96.5045 10.2642 96.0613 10.5938C95.6238 10.9233 95.3284 11.3125 95.175 11.7614L92.2943 11.3523C92.5216 10.5568 92.8966 9.89205 93.4193 9.35795C93.942 8.81818 94.5812 8.41477 95.3369 8.14773C96.0926 7.875 96.9278 7.73864 97.8426 7.73864C98.4733 7.73864 99.1011 7.8125 99.7261 7.96023C100.351 8.10795 100.922 8.35227 101.439 8.69318C101.956 9.02841 102.371 9.4858 102.683 10.0653C103.002 10.6449 103.161 11.3693 103.161 12.2386V21H100.195V19.2017H100.093C99.9051 19.5653 99.6409 19.9062 99.3 20.2244C98.9647 20.5369 98.5414 20.7898 98.0301 20.983C97.5244 21.1705 96.9307 21.2642 96.2488 21.2642ZM97.05 18.9972C97.6693 18.9972 98.2062 18.875 98.6608 18.6307C99.1153 18.3807 99.4647 18.0511 99.7091 17.642C99.9591 17.233 100.084 16.7869 100.084 16.304V14.7614C99.9875 14.8409 99.8227 14.9148 99.5897 14.983C99.3625 15.0511 99.1068 15.1108 98.8227 15.1619C98.5386 15.2131 98.2574 15.2585 97.9789 15.2983C97.7005 15.3381 97.4591 15.3722 97.2545 15.4006C96.7943 15.4631 96.3824 15.5653 96.0187 15.7074C95.6551 15.8494 95.3682 16.0483 95.1579 16.304C94.9477 16.554 94.8426 16.8778 94.8426 17.2756C94.8426 17.8438 95.05 18.2727 95.4647 18.5625C95.8795 18.8523 96.4079 18.9972 97.05 18.9972ZM111.36 7.90909V10.2955H103.834V7.90909H111.36ZM105.692 4.77273H108.778V17.0625C108.778 17.4773 108.84 17.7955 108.965 18.017C109.096 18.233 109.266 18.3807 109.476 18.4602C109.687 18.5398 109.92 18.5795 110.175 18.5795C110.368 18.5795 110.545 18.5653 110.704 18.5369C110.868 18.5085 110.993 18.483 111.079 18.4602L111.599 20.8722C111.434 20.929 111.198 20.9915 110.891 21.0597C110.59 21.1278 110.221 21.1676 109.783 21.179C109.011 21.2017 108.315 21.0852 107.695 20.8295C107.076 20.5682 106.584 20.1648 106.221 19.6193C105.863 19.0739 105.687 18.392 105.692 17.5739V4.77273ZM118.155 21.2557C116.843 21.2557 115.709 20.983 114.754 20.4375C113.806 19.8864 113.076 19.108 112.564 18.1023C112.053 17.0909 111.797 15.9006 111.797 14.5312C111.797 13.1847 112.053 12.0028 112.564 10.9858C113.081 9.96307 113.803 9.16761 114.729 8.59943C115.655 8.02557 116.743 7.73864 117.993 7.73864C118.8 7.73864 119.561 7.86932 120.277 8.13068C120.999 8.38636 121.635 8.78409 122.186 9.32386C122.743 9.86364 123.181 10.5511 123.499 11.3864C123.817 12.2159 123.976 13.2045 123.976 14.3523V15.2983H113.246V13.2188H121.019C121.013 12.6278 120.885 12.1023 120.635 11.642C120.385 11.1761 120.036 10.8097 119.587 10.5426C119.144 10.2756 118.627 10.142 118.036 10.142C117.405 10.142 116.851 10.2955 116.374 10.6023C115.897 10.9034 115.524 11.3011 115.257 11.7955C114.996 12.2841 114.862 12.821 114.857 13.4062V15.2216C114.857 15.983 114.996 16.6364 115.274 17.1818C115.553 17.7216 115.942 18.1364 116.442 18.4261C116.942 18.7102 117.527 18.8523 118.198 18.8523C118.647 18.8523 119.053 18.7898 119.416 18.6648C119.78 18.5341 120.095 18.3438 120.362 18.0938C120.629 17.8438 120.831 17.5341 120.968 17.1648L123.848 17.4886C123.666 18.25 123.32 18.9148 122.808 19.483C122.303 20.0455 121.655 20.483 120.865 20.7955C120.076 21.1023 119.172 21.2557 118.155 21.2557Z"
    fill="white" />
  <mask id="path-2-outside-1_4_38" maskUnits="userSpaceOnUse" x="109" y="-1" width="43" height="26"
    fill="black">
    <rect fill="white" x="109" y="-1" width="43" height="26" />
    <path
      d="M116.227 0.727272L121.852 18.4091H122.068L127.705 0.727272H133.159L125.136 24H118.795L110.761 0.727272H116.227ZM133.904 24V20.4545L142.188 12.7841C142.893 12.1023 143.483 11.4886 143.961 10.9432C144.446 10.3977 144.813 9.86364 145.063 9.34091C145.313 8.81061 145.438 8.23864 145.438 7.625C145.438 6.94318 145.283 6.35606 144.972 5.86364C144.661 5.36364 144.237 4.98106 143.699 4.71591C143.161 4.44318 142.552 4.30682 141.87 4.30682C141.158 4.30682 140.536 4.45076 140.006 4.73864C139.476 5.02651 139.067 5.43939 138.779 5.97727C138.491 6.51515 138.347 7.1553 138.347 7.89773H133.677C133.677 6.375 134.021 5.05303 134.711 3.93182C135.4 2.81061 136.366 1.94318 137.608 1.32954C138.851 0.715908 140.283 0.40909 141.904 0.40909C143.571 0.40909 145.021 0.704545 146.256 1.29545C147.499 1.87879 148.464 2.68939 149.154 3.72727C149.843 4.76515 150.188 5.95454 150.188 7.29545C150.188 8.17424 150.014 9.04167 149.665 9.89773C149.324 10.7538 148.714 11.7045 147.836 12.75C146.957 13.7879 145.718 15.0341 144.12 16.4886L140.722 19.8182V19.9773H150.495V24H133.904Z" />
  </mask>
  <path
    d="M116.227 0.727272L117.18 0.424119L116.959 -0.272728H116.227V0.727272ZM121.852 18.4091L120.899 18.7122L121.121 19.4091H121.852V18.4091ZM122.068 18.4091V19.4091H122.799L123.021 18.7128L122.068 18.4091ZM127.705 0.727272V-0.272728H126.974L126.752 0.423563L127.705 0.727272ZM133.159 0.727272L134.104 1.05318L134.562 -0.272728H133.159V0.727272ZM125.136 24V25H125.849L126.082 24.3259L125.136 24ZM118.795 24L117.85 24.3263L118.083 25H118.795V24ZM110.761 0.727272V-0.272728H109.358L109.816 1.05359L110.761 0.727272ZM115.274 1.03043L120.899 18.7122L122.805 18.1059L117.18 0.424119L115.274 1.03043ZM121.852 19.4091H122.068V17.4091H121.852V19.4091ZM123.021 18.7128L128.657 1.03098L126.752 0.423563L121.115 18.1054L123.021 18.7128ZM127.705 1.72727H133.159V-0.272728H127.705V1.72727ZM132.214 0.401367L124.191 23.6741L126.082 24.3259L134.104 1.05318L132.214 0.401367ZM125.136 23H118.795V25H125.136V23ZM119.741 23.6737L111.707 0.400954L109.816 1.05359L117.85 24.3263L119.741 23.6737ZM110.761 1.72727H116.227V-0.272728H110.761V1.72727ZM133.904 24H132.904V25H133.904V24ZM133.904 20.4545L133.224 19.7208L132.904 20.0176V20.4545H133.904ZM142.188 12.7841L142.867 13.5179L142.875 13.5104L142.883 13.5027L142.188 12.7841ZM143.961 10.9432L143.213 10.2788L143.208 10.2847L143.961 10.9432ZM145.063 9.34091L145.965 9.77237L145.967 9.76733L145.063 9.34091ZM144.972 5.86364L144.123 6.39133L144.126 6.39714L144.972 5.86364ZM143.699 4.71591L143.247 5.60787L143.257 5.61285L143.699 4.71591ZM138.779 5.97727L139.661 6.44915L138.779 5.97727ZM138.347 7.89773V8.89773H139.347V7.89773H138.347ZM133.677 7.89773H132.677V8.89773H133.677V7.89773ZM134.711 3.93182L135.563 4.45559L134.711 3.93182ZM137.608 1.32954L137.166 0.43294V0.432941L137.608 1.32954ZM146.256 1.29545L145.824 2.19752L145.831 2.20065L146.256 1.29545ZM149.154 3.72727L148.321 4.28057V4.28057L149.154 3.72727ZM149.665 9.89773L148.739 9.52068L148.736 9.52775L149.665 9.89773ZM147.836 12.75L148.599 13.3962L148.601 13.3935L147.836 12.75ZM144.12 16.4886L143.447 15.749L143.433 15.7615L143.42 15.7744L144.12 16.4886ZM140.722 19.8182L140.022 19.1039L139.722 19.398V19.8182H140.722ZM140.722 19.9773H139.722V20.9773H140.722V19.9773ZM150.495 19.9773H151.495V18.9773H150.495V19.9773ZM150.495 24V25H151.495V24H150.495ZM134.904 24V20.4545H132.904V24H134.904ZM134.583 21.1883L142.867 13.5179L141.509 12.0503L133.224 19.7208L134.583 21.1883ZM142.883 13.5027C143.601 12.8078 144.213 12.1737 144.713 11.6017L143.208 10.2847C142.754 10.8035 142.184 11.3967 141.493 12.0655L142.883 13.5027ZM144.708 11.6075C145.24 11.0093 145.666 10.3982 145.965 9.77236L144.161 8.90945C143.96 9.32912 143.651 9.78612 143.213 10.2788L144.708 11.6075ZM145.967 9.76733C146.283 9.09742 146.438 8.37902 146.438 7.625H144.438C144.438 8.09825 144.343 8.52379 144.158 8.91449L145.967 9.76733ZM146.438 7.625C146.438 6.78721 146.245 6.00795 145.818 5.33013L144.126 6.39714C144.32 6.70417 144.438 7.09916 144.438 7.625H146.438ZM145.821 5.33595C145.41 4.67411 144.844 4.1651 144.141 3.81897L143.257 5.61285C143.631 5.79702 143.913 6.05316 144.123 6.39132L145.821 5.33595ZM144.152 3.82401C143.456 3.47141 142.688 3.30682 141.87 3.30682V5.30682C142.415 5.30682 142.867 5.41495 143.247 5.60781L144.152 3.82401ZM141.87 3.30682C141.021 3.30682 140.23 3.4792 139.529 3.85978L140.483 5.61749C140.843 5.42231 141.294 5.30682 141.87 5.30682V3.30682ZM139.529 3.85978C138.825 4.24197 138.276 4.79727 137.897 5.50539L139.661 6.44915C139.857 6.08152 140.127 5.81106 140.483 5.61749L139.529 3.85978ZM137.897 5.50539C137.516 6.21671 137.347 7.02604 137.347 7.89773H139.347C139.347 7.28456 139.465 6.8136 139.661 6.44915L137.897 5.50539ZM138.347 6.89773H133.677V8.89773H138.347V6.89773ZM134.677 7.89773C134.677 6.53039 134.984 5.39587 135.563 4.45559L133.859 3.40804C133.058 4.71019 132.677 6.21961 132.677 7.89773H134.677ZM135.563 4.45559C136.148 3.50331 136.968 2.76107 138.051 2.22615L137.166 0.432941C135.764 1.12529 134.652 2.11791 133.859 3.40804L135.563 4.45559ZM138.051 2.22615C139.134 1.69118 140.41 1.40909 141.904 1.40909V-0.59091C140.155 -0.59091 138.567 -0.259364 137.166 0.43294L138.051 2.22615ZM141.904 1.40909C143.453 1.40909 144.75 1.68356 145.824 2.19749L146.688 0.393414C145.292 -0.274471 143.688 -0.59091 141.904 -0.59091V1.40909ZM145.831 2.20065C146.925 2.71437 147.743 3.41032 148.321 4.28057L149.987 3.17398C149.186 1.96847 148.072 1.04321 146.681 0.39026L145.831 2.20065ZM148.321 4.28057C148.893 5.14186 149.188 6.13568 149.188 7.29545H151.188C151.188 5.7734 150.794 4.38844 149.987 3.17397L148.321 4.28057ZM149.188 7.29545C149.188 8.03835 149.041 8.77806 148.739 9.52069L150.591 10.2748C150.986 9.30527 151.188 8.31013 151.188 7.29545H149.188ZM148.736 9.52775C148.449 10.249 147.91 11.1074 147.07 12.1065L148.601 13.3935C149.519 12.3017 150.2 11.2586 150.594 10.2677L148.736 9.52775ZM147.073 12.1038C146.233 13.0952 145.029 14.3088 143.447 15.749L144.793 17.2283C146.407 15.7594 147.681 14.4805 148.599 13.3962L147.073 12.1038ZM143.42 15.7744L140.022 19.1039L141.422 20.5324L144.82 17.2029L143.42 15.7744ZM139.722 19.8182V19.9773H141.722V19.8182H139.722ZM140.722 20.9773H150.495V18.9773H140.722V20.9773ZM149.495 19.9773V24H151.495V19.9773H149.495ZM150.495 23H133.904V25H150.495V23Z"
    fill="white" fill-opacity="0.4" mask="url(#path-2-outside-1_4_38)" />
</svg>